# xmcd
#
# Track frame offsets:
#	150
#	19201
#	32343
#	54123
#	78269
#	98849
#	111101
#	128321
#	147271
#	160872
#	184282
#	207575
#
# Disc length: 2939 seconds
#
# Revision: 3
# Processed by: cddbd v1.4PL0 Copyright (c) Steve Scherf et al.
# Submitted via: audiograbber 1.82.02
#
DISCID=920b790c
DTITLE=Joe Vicino and the Smoke Daddys - Road Scars
DYEAR=2001
DGENRE=Blues
TTITLE0=Sweet Little Angel
TTITLE1=Scoffaw Blues
TTITLE2=Feels Like Rain
TTITLE3=Rum Boogie
TTITLE4=Early In The Morning
TTITLE5=Korina
TTITLE6=Josephine
TTITLE7=Big Legged Woman
TTITLE8=This Too Shall Pass
TTITLE9=Sugarman
TTITLE10=Too Rolling Stoned
TTITLE11=Me and My Crazy Self
EXTD=
EXTT0=
EXTT1=
EXTT2=
EXTT3=
EXTT4=
EXTT5=
EXTT6=
EXTT7=
EXTT8=
EXTT9=
EXTT10=
EXTT11=
PLAYORDER=
